<?xml version="1.0" standalone="no"?>
<!DOCTYPE svg PUBLIC "-//W3C//DTD SVG 20010904//EN"
 "http://www.w3.org/TR/2001/REC-SVG-20010904/DTD/svg10.dtd">
<svg version="1.0" xmlns="http://www.w3.org/2000/svg"
 width="608.000000pt" height="608.000000pt" viewBox="0 0 608.000000 608.000000"
 preserveAspectRatio="xMidYMid meet">
<metadata>
Created by potrace 1.14, written by Peter Selinger 2001-2017
</metadata>
<g transform="translate(0.000000,608.000000) scale(0.100000,-0.100000)"
fill="#FFFFFF" stroke="none">
<path d="M2785 5755 c-399 -35 -674 -95 -979 -217 -368 -146 -696 -392 -990
-743 -128 -153 -222 -319 -320 -570 -16 -38 -36 -90 -47 -115 -10 -25 -25 -70
-33 -100 -8 -30 -33 -116 -56 -190 -22 -74 -56 -202 -75 -285 -20 -82 -40
-168 -45 -190 -6 -22 -13 -51 -15 -65 -3 -14 -12 -60 -20 -104 -8 -43 -15 -92
-15 -109 0 -17 -4 -44 -10 -61 -13 -42 -45 -345 -72 -676 -21 -246 -23 -339
-23 -870 1 -586 6 -731 45 -1225 16 -203 21 -235 32 -235 7 0 9 24 4 73 -38
431 -57 817 -63 1277 -7 517 8 835 67 1430 25 254 108 691 170 895 5 17 21 73
36 125 115 417 265 754 423 950 174 216 414 437 609 560 30 18 60 40 68 47 8
8 14 11 14 7 0 -4 8 0 18 8 23 21 158 88 273 136 191 79 394 138 596 172 65
11 125 22 133 25 46 14 371 36 530 36 224 0 394 -18 600 -65 731 -166 1218
-478 1667 -1067 235 -308 486 -781 574 -1081 l23 -78 -28 -29 c-80 -84 -303
-215 -491 -289 -581 -229 -1297 -334 -2175 -319 -518 10 -1007 59 -1513 154
-158 29 -173 26 -162 -36 9 -48 75 -188 132 -281 41 -66 149 -216 178 -246 5
-6 39 -44 75 -84 239 -267 643 -508 1047 -624 332 -96 826 -128 1218 -80 217
27 519 99 635 151 19 8 62 24 95 35 79 26 331 152 445 223 51 31 103 60 116
65 24 10 25 9 18 -28 -20 -108 -85 -250 -172 -371 -248 -347 -636 -615 -1113
-769 -300 -97 -608 -141 -986 -142 -144 0 -214 -4 -219 -11 -14 -23 27 -29
217 -29 200 0 444 18 604 45 98 17 335 75 403 99 33 12 44 13 47 3 2 -7 16
-61 30 -122 44 -186 112 -426 166 -582 28 -81 53 -156 56 -165 4 -15 43 -27
43 -14 0 2 -24 77 -54 167 -30 90 -66 206 -81 257 -41 142 -123 476 -119 484
2 3 26 14 52 24 26 9 112 48 192 87 480 229 867 630 960 992 35 136 21 162
-52 102 -24 -19 -62 -45 -85 -58 -22 -13 -72 -42 -110 -63 -72 -42 -237 -126
-247 -126 -4 0 -28 -9 -54 -21 -26 -11 -63 -28 -82 -36 -55 -24 -232 -80 -338
-108 -115 -30 -380 -75 -438 -75 l-42 0 -41 84 c-58 120 -107 275 -125 397
-18 121 -21 332 -6 429 15 95 61 240 79 249 9 5 54 12 101 16 437 35 942 143
1268 271 223 87 380 175 525 293 68 55 69 57 63 96 -15 106 -82 279 -195 505
-191 381 -380 659 -629 924 -388 414 -791 652 -1327 785 -303 75 -682 104
-1000 76z"/>
<path d="M5862 5215 c-7 -8 -9 -15 -4 -15 5 0 15 7 22 15 16 19 -1 19 -18 0z"/>
<path d="M5837 5173 c-4 -3 -7 -11 -7 -17 0 -6 5 -5 12 2 6 6 9 14 7 17 -3 3
-9 2 -12 -2z"/>
<path d="M5670 4980 c0 -5 5 -10 10 -10 6 0 10 5 10 10 0 6 -4 10 -10 10 -5 0
-10 -4 -10 -10z"/>
<path d="M5616 4911 c-3 -5 1 -14 8 -20 12 -10 13 -8 9 8 -6 23 -9 25 -17 12z"/>
<path d="M4181 4860 c-69 -25 -116 -61 -152 -118 -31 -48 -64 -142 -74 -207
-14 -95 -15 -95 -42 -30 -56 131 -157 245 -262 293 -63 29 -172 43 -253 32
-147 -20 -292 -142 -361 -302 -65 -151 -81 -238 -81 -433 0 -199 10 -252 80
-393 78 -159 180 -249 329 -287 134 -34 278 -4 393 82 72 54 159 199 196 328
l18 59 38 -77 c44 -90 76 -134 143 -199 66 -63 126 -91 210 -96 278 -18 446
181 463 548 7 156 -11 287 -62 442 -65 193 -162 311 -298 358 -75 27 -210 27
-285 0z m244 -24 c148 -39 233 -137 304 -351 50 -151 61 -217 61 -380 0 -261
-80 -448 -222 -517 -64 -32 -168 -52 -221 -44 -124 20 -250 143 -322 316 -24
58 -29 86 -38 245 -15 250 -13 357 8 450 18 84 59 175 94 212 66 70 218 101
336 69z m-781 -75 c89 -43 154 -112 209 -219 75 -146 98 -249 98 -442 0 -111
-4 -152 -24 -230 -45 -174 -119 -296 -219 -361 -76 -49 -142 -69 -228 -69
-189 0 -322 91 -415 284 -63 131 -78 219 -73 420 5 136 9 174 32 249 66 219
167 339 331 394 25 8 75 12 131 10 79 -2 99 -7 158 -36z"/>
<path d="M4581 4405 c-41 -35 -55 -84 -55 -190 0 -146 52 -235 139 -235 72 0
93 26 106 132 9 75 -7 192 -35 246 -37 71 -102 91 -155 47z m108 -36 c40 -43
33 -138 -12 -153 -23 -8 -31 -6 -49 11 -25 25 -36 109 -19 142 15 27 54 27 80
0z m-64 -269 c0 -36 -29 -33 -33 3 -3 23 0 28 15 25 12 -2 18 -12 18 -28z"/>
<path d="M3700 4357 c-62 -41 -75 -77 -75 -207 0 -103 3 -120 25 -164 32 -65
69 -91 125 -91 88 0 134 90 122 237 -17 201 -98 293 -197 225z m91 -27 c44
-24 64 -114 33 -158 -10 -15 -25 -22 -49 -22 -57 0 -83 43 -72 123 8 58 43 81
88 57z m-66 -305 c0 -30 -39 -27 -43 3 -3 20 0 23 20 20 15 -2 23 -10 23 -23z"/>
</g>
</svg>
